<svg xmlns="http://www.w3.org/2000/svg" xmlns:xlink="http://www.w3.org/1999/xlink" viewBox="0 0 256 256"><defs><style>.cls-1{isolation:isolate;}.cls-2{fill:#16425b;}.cls-10,.cls-11,.cls-12,.cls-13,.cls-14,.cls-15,.cls-16,.cls-17,.cls-18,.cls-19,.cls-2,.cls-4,.cls-5,.cls-6,.cls-7,.cls-8,.cls-9{stroke-miterlimit:10;}.cls-2,.cls-4,.cls-5{stroke:url(#linear-gradient);}.cls-3{mix-blend-mode:multiply;}.cls-4{fill:url(#linear-gradient-2);}.cls-5{fill:url(#linear-gradient-4);}.cls-6{fill:url(#linear-gradient-6);stroke:url(#linear-gradient-7);}.cls-7{fill:url(#linear-gradient-8);stroke:url(#linear-gradient-9);}.cls-8{fill:url(#linear-gradient-10);stroke:url(#linear-gradient-11);}.cls-9{fill:url(#linear-gradient-12);stroke:url(#linear-gradient-13);}.cls-10{fill:url(#linear-gradient-14);stroke:url(#linear-gradient-15);}.cls-11{fill:url(#linear-gradient-16);stroke:url(#linear-gradient-17);}.cls-12{fill:url(#linear-gradient-18);stroke:url(#linear-gradient-19);}.cls-13{fill:url(#linear-gradient-20);stroke:url(#linear-gradient-21);}.cls-14{fill:url(#linear-gradient-22);stroke:url(#linear-gradient-23);}.cls-15{fill:url(#linear-gradient-24);stroke:url(#linear-gradient-25);}.cls-16{fill:url(#linear-gradient-26);stroke:url(#linear-gradient-27);}.cls-17{fill:url(#linear-gradient-28);stroke:url(#linear-gradient-29);}.cls-18{fill:url(#linear-gradient-30);stroke:url(#linear-gradient-31);}.cls-19{fill:#fff;stroke:url(#linear-gradient-32);}.cls-20{fill:#fefefe;}</style><linearGradient id="linear-gradient" x1="23.58" y1="75.93" x2="230.6" y2="168.1" gradientUnits="userSpaceOnUse"><stop offset="0" stop-color="#666"/><stop offset="0.49" stop-color="#808285"/><stop offset="1" stop-color="#666"/></linearGradient><linearGradient id="linear-gradient-2" x1="24.05" y1="76.14" x2="230.13" y2="167.89" gradientUnits="userSpaceOnUse"><stop offset="0" stop-color="#fff"/><stop offset="1"/></linearGradient><linearGradient id="linear-gradient-4" x1="24.05" y1="76.14" x2="230.13" y2="167.89" gradientUnits="userSpaceOnUse"><stop offset="0" stop-color="gray"/><stop offset="1" stop-color="#ccc"/></linearGradient><linearGradient id="linear-gradient-6" x1="127" y1="9" x2="127" y2="235" gradientUnits="userSpaceOnUse"><stop offset="0" stop-color="#fff"/><stop offset="1" stop-color="#4d4d4d"/></linearGradient><linearGradient id="linear-gradient-7" x1="23.67" y1="75.89" x2="230.53" y2="167.99" xlink:href="#linear-gradient"/><linearGradient id="linear-gradient-8" x1="50.99" y1="45.99" x2="203.01" y2="198.01" gradientUnits="userSpaceOnUse"><stop offset="0" stop-color="#fff"/><stop offset="1" stop-color="#333"/></linearGradient><linearGradient id="linear-gradient-9" x1="28.31" y1="78.06" x2="225.69" y2="165.94" xlink:href="#linear-gradient"/><linearGradient id="linear-gradient-10" x1="51.84" y1="46.74" x2="202.26" y2="197.16" gradientUnits="userSpaceOnUse"><stop offset="0" stop-color="#fff"/><stop offset="1" stop-color="#414141"/></linearGradient><linearGradient id="linear-gradient-11" x1="29.4" y1="78.48" x2="224.69" y2="165.43" xlink:href="#linear-gradient"/><linearGradient id="linear-gradient-12" x1="52.68" y1="47.5" x2="201.5" y2="196.32" gradientUnits="userSpaceOnUse"><stop offset="0" stop-color="#fff"/><stop offset="1" stop-color="#4f4f4f"/></linearGradient><linearGradient id="linear-gradient-13" x1="30.48" y1="78.9" x2="223.7" y2="164.92" xlink:href="#linear-gradient"/><linearGradient id="linear-gradient-14" x1="53.53" y1="48.26" x2="200.74" y2="195.47" gradientUnits="userSpaceOnUse"><stop offset="0" stop-color="#fff"/><stop offset="1" stop-color="#5d5d5d"/></linearGradient><linearGradient id="linear-gradient-15" x1="31.56" y1="79.31" x2="222.71" y2="164.42" xlink:href="#linear-gradient"/><linearGradient id="linear-gradient-16" x1="54.38" y1="49.02" x2="199.98" y2="194.62" gradientUnits="userSpaceOnUse"><stop offset="0" stop-color="#fff"/><stop offset="1" stop-color="#6b6b6b"/></linearGradient><linearGradient id="linear-gradient-17" x1="32.65" y1="79.73" x2="221.72" y2="163.91" xlink:href="#linear-gradient"/><linearGradient id="linear-gradient-18" x1="55.23" y1="49.78" x2="199.22" y2="193.77" gradientUnits="userSpaceOnUse"><stop offset="0" stop-color="#fff"/><stop offset="1" stop-color="#797979"/></linearGradient><linearGradient id="linear-gradient-19" x1="33.73" y1="80.15" x2="220.72" y2="163.4" xlink:href="#linear-gradient"/><linearGradient id="linear-gradient-20" x1="56.08" y1="50.53" x2="198.47" y2="192.92" gradientUnits="userSpaceOnUse"><stop offset="0" stop-color="#fff"/><stop offset="1" stop-color="#868686"/></linearGradient><linearGradient id="linear-gradient-21" x1="34.82" y1="80.56" x2="219.73" y2="162.89" xlink:href="#linear-gradient"/><linearGradient id="linear-gradient-22" x1="56.93" y1="51.29" x2="197.71" y2="192.07" gradientUnits="userSpaceOnUse"><stop offset="0" stop-color="#fff"/><stop offset="1" stop-color="#949494"/></linearGradient><linearGradient id="linear-gradient-23" x1="35.9" y1="80.98" x2="218.74" y2="162.38" xlink:href="#linear-gradient"/><linearGradient id="linear-gradient-24" x1="57.78" y1="52.05" x2="196.95" y2="191.22" gradientUnits="userSpaceOnUse"><stop offset="0" stop-color="#fff"/><stop offset="1" stop-color="#a2a2a2"/></linearGradient><linearGradient id="linear-gradient-25" x1="36.98" y1="81.4" x2="217.74" y2="161.88" xlink:href="#linear-gradient"/><linearGradient id="linear-gradient-26" x1="58.63" y1="52.81" x2="196.19" y2="190.37" gradientUnits="userSpaceOnUse"><stop offset="0" stop-color="#fff"/><stop offset="1" stop-color="#b0b0b0"/></linearGradient><linearGradient id="linear-gradient-27" x1="38.07" y1="81.81" x2="216.75" y2="161.37" xlink:href="#linear-gradient"/><linearGradient id="linear-gradient-28" x1="59.48" y1="53.57" x2="195.43" y2="189.52" gradientUnits="userSpaceOnUse"><stop offset="0" stop-color="#fff"/><stop offset="1" stop-color="#bebebe"/></linearGradient><linearGradient id="linear-gradient-29" x1="39.15" y1="82.23" x2="215.76" y2="160.86" xlink:href="#linear-gradient"/><linearGradient id="linear-gradient-30" x1="60.32" y1="54.32" x2="194.68" y2="188.68" gradientUnits="userSpaceOnUse"><stop offset="0" stop-color="#fff"/><stop offset="1" stop-color="#ccc"/></linearGradient><linearGradient id="linear-gradient-31" x1="40.23" y1="82.65" x2="214.77" y2="160.35" xlink:href="#linear-gradient"/><linearGradient id="linear-gradient-32" x1="35.83" y1="79" x2="162.98" y2="135.61" xlink:href="#linear-gradient"/></defs><title>MATA</title><g class="cls-1"><g id="Layer_1" data-name="Layer 1"><g id="CapacPrincipal"><path class="cls-2" d="M239.86,127.64c.09-1.87.14-3.75.14-5.64,0-2.6-.12-5.18-.29-7.74-7.35-4.85-8.1-10.07-2.36-16.58A113.32,113.32,0,0,0,233.78,85c-8.05-2.55-10-7.16-6.27-14.63a110.58,110.58,0,0,0-6.6-11.24c-8.27-.36-11.29-4.24-9.55-12.3a111.17,111.17,0,0,0-9.21-9.21c-8.06,1.74-11.94-1.28-12.3-9.55a110.58,110.58,0,0,0-11.24-6.6c-7.47,3.76-12.08,1.78-14.63-6.27a113.32,113.32,0,0,0-12.66-3.57c-6.51,5.74-11.73,5-16.58-2.36C132.18,9.12,129.6,9,127,9c-1.89,0-3.77.05-5.64.14-5,7.64-10.34,8.31-17.08,2.15a109.75,109.75,0,0,0-12,3.18c-2.6,9-7.55,11.06-15.83,6.49a114.55,114.55,0,0,0-10.24,5.83c0,9.79-4.33,13.06-13.88,10.47Q48.06,41,44.21,45.12c2.74,9.9-.73,14.25-11.13,14q-3,4.53-5.63,9.35c5.47,9.26,3.16,14.54-7.43,17.11Q18.3,90.71,17,96c8,7.9,7.14,13.92-2.84,19.55-.12,2.14-.2,4.29-.2,6.46,0,1.48.06,3,.11,4.41,10.22,5.73,11,11.86,2.56,20,.73,3.33,1.59,6.61,2.61,9.82,11.59,2.58,13.93,8.16,7.61,18.21q2.3,4.35,4.93,8.47c11.94-.62,15.59,4.13,11.94,15.52Q47,202,50.6,205.24c11.39-3.65,16.14,0,15.52,11.94q4.13,2.64,8.47,4.93c10-6.32,15.63-4,18.21,7.61,3.21,1,6.49,1.88,9.82,2.61,8.11-8.46,14.24-7.66,20,2.56,1.46.05,2.93.11,4.41.11,2.17,0,4.32-.08,6.46-.2,5.63-10,11.65-10.87,19.55-2.84q5.28-1.25,10.37-3c2.57-10.59,7.85-12.9,17.11-7.43q4.81-2.6,9.35-5.63c-.21-10.4,4.14-13.87,14-11.13q4.13-3.84,7.86-8.08c-2.59-9.55.68-13.88,10.47-13.88A114.55,114.55,0,0,0,228,172.59c-4.57-8.28-2.53-13.23,6.49-15.83a109.75,109.75,0,0,0,3.18-12C231.55,138,232.22,132.62,239.86,127.64Z"/><g class="cls-3"><path class="cls-4" d="M239.86,127.64c.09-1.87.14-3.75.14-5.64,0-2.6-.12-5.18-.29-7.74-7.35-4.85-8.1-10.07-2.36-16.58A113.32,113.32,0,0,0,233.78,85c-8.05-2.55-10-7.16-6.27-14.63a110.58,110.58,0,0,0-6.6-11.24c-8.27-.36-11.29-4.24-9.55-12.3a111.17,111.17,0,0,0-9.21-9.21c-8.06,1.74-11.94-1.28-12.3-9.55a110.58,110.58,0,0,0-11.24-6.6c-7.47,3.76-12.08,1.78-14.63-6.27a113.32,113.32,0,0,0-12.66-3.57c-6.51,5.74-11.73,5-16.58-2.36C132.18,9.12,129.6,9,127,9c-1.89,0-3.77.05-5.64.14-5,7.64-10.34,8.31-17.08,2.15a109.75,109.75,0,0,0-12,3.18c-2.6,9-7.55,11.06-15.83,6.49a114.55,114.55,0,0,0-10.24,5.83c0,9.79-4.33,13.06-13.88,10.47Q48.06,41,44.21,45.12c2.74,9.9-.73,14.25-11.13,14q-3,4.53-5.63,9.35c5.47,9.26,3.16,14.54-7.43,17.11Q18.3,90.71,17,96c8,7.9,7.14,13.92-2.84,19.55-.12,2.14-.2,4.29-.2,6.46,0,1.48.06,3,.11,4.41,10.22,5.73,11,11.86,2.56,20,.73,3.33,1.59,6.61,2.61,9.82,11.59,2.58,13.93,8.16,7.61,18.21q2.3,4.35,4.93,8.47c11.94-.62,15.59,4.13,11.94,15.52Q47,202,50.6,205.24c11.39-3.65,16.14,0,15.52,11.94q4.13,2.64,8.47,4.93c10-6.32,15.63-4,18.21,7.61,3.21,1,6.49,1.88,9.82,2.61,8.11-8.46,14.24-7.66,20,2.56,1.46.05,2.93.11,4.41.11,2.17,0,4.32-.08,6.46-.2,5.63-10,11.65-10.87,19.55-2.84q5.28-1.25,10.37-3c2.57-10.59,7.85-12.9,17.11-7.43q4.81-2.6,9.35-5.63c-.21-10.4,4.14-13.87,14-11.13q4.13-3.84,7.86-8.08c-2.59-9.55.68-13.88,10.47-13.88A114.55,114.55,0,0,0,228,172.59c-4.57-8.28-2.53-13.23,6.49-15.83a109.75,109.75,0,0,0,3.18-12C231.55,138,232.22,132.62,239.86,127.64Z"/><path class="cls-5" d="M240,122c0-2.6-.12-5.18-.29-7.74-.58-.38-1.11-.77-1.61-1.16l-32.28-3,30.74-11.43c.25-.31.5-.63.79-.95A113.32,113.32,0,0,0,233.78,85c-.53-.17-1-.35-1.5-.53l-31.87,5.4,26.93-19.14.17-.36a110.58,110.58,0,0,0-6.6-11.24,21.53,21.53,0,0,1-2.71-.28L190,71.8l21-25.38a114.17,114.17,0,0,0-8.82-8.78,19.16,19.16,0,0,1-4.09.47L175.2,57l13.58-29.64a114,114,0,0,0-10.17-5.9,17,17,0,0,1-4.87,1.7l-16.63,23.4,5.4-31.85a112.59,112.59,0,0,0-11.19-3.09,17.45,17.45,0,0,1-4.53,3l-9.85,26.5-3-31.93C131.64,9.1,129.33,9,127,9c-1.89,0-3.77.05-5.64.14a21.07,21.07,0,0,1-2.59,3.29l-2.71,28.75-10.8-29c-.32-.27-.65-.54-1-.84a109.75,109.75,0,0,0-12,3.18A24.21,24.21,0,0,1,91,17.81l4.88,28.78L78.37,21.93c-.63-.28-1.28-.59-2-1a114.55,114.55,0,0,0-10.24,5.83,23.17,23.17,0,0,1-.34,4.12L77.8,57,54.52,37.76c-.72-.13-1.45-.29-2.23-.5Q48.06,41,44.21,45.12a22.84,22.84,0,0,1,.88,5L63,71.8,35.35,59.12c-.72,0-1.47.06-2.27,0q-3,4.53-5.63,9.35a23.76,23.76,0,0,1,2.36,5.19L52.59,89.89,22.72,84.83c-.84.28-1.72.55-2.7.79Q18.3,90.71,17,96a25.39,25.39,0,0,1,3.51,4.17l26.63,9.9-28.9,2.72a28,28,0,0,1-4.08,2.76c-.12,2.14-.2,4.29-.2,6.46,0,1.48.06,3,.11,4.41,1,.55,1.84,1.11,2.65,1.66l30.42,2.87-25.87,9.62a23.18,23.18,0,0,1-4.64,5.82c.73,3.33,1.59,6.61,2.61,9.82l1.31.33,32-5.42-22.48,16a22.07,22.07,0,0,1-3.22,7.33q2.3,4.35,4.93,8.47c.5,0,1,0,1.43,0L63,169.2,45.1,190.87a23.35,23.35,0,0,1-1.34,7.53Q47,202,50.6,205.24c.79-.25,1.55-.46,2.28-.65L77.8,184,65.69,210.4a25.06,25.06,0,0,1,.43,6.78q4.13,2.64,8.47,4.93c1-.6,1.84-1.09,2.7-1.53l18.6-26.17-5,29.51a27,27,0,0,1,1.91,5.8c3.21,1,6.49,1.88,9.82,2.61.71-.74,1.41-1.39,2.09-2l11.35-30.52,2.82,29.87a25.79,25.79,0,0,1,3.71,5.2c1.46.05,2.93.11,4.41.11,2.17,0,4.32-.08,6.46-.2l.21-.35,3.27-34.63,10.31,27.72A21.81,21.81,0,0,1,153,232c3.39-.8,6.72-1.76,10-2.85l-5.88-34.7L174.58,219a21.93,21.93,0,0,1,5.91,2.55q4.81-2.6,9.35-5.63L175.2,184l24.15,20a24.57,24.57,0,0,1,4.53.84q4.13-3.84,7.86-8.08c-.16-.58-.29-1.15-.41-1.69L190,169.2l30,13.73c.72-.06,1.46-.1,2.27-.1A114.55,114.55,0,0,0,228,172.59a26,26,0,0,1-1.34-2.8l-26.29-18.68,33.86,5.74.26-.09a109.75,109.75,0,0,0,3.18-12,23.15,23.15,0,0,1-2.15-2.72l-29.74-11.06,33.89-3.2.15-.1C240,125.77,240,123.89,240,122Z"/><path class="cls-6" d="M239.85,116.94l-63.78-3,60.57-19.28c-.57-2.33-1.22-4.62-1.94-6.89l-62,13.57,53.17-34.08q-1.74-3.17-3.68-6.19l-56,29,42.25-46.37q-2.5-2.61-5.18-5l-46.3,42.19L185.6,25.4q-3.1-1.87-6.33-3.56L145.63,74.31l13.28-60.7c-2.32-.68-4.67-1.3-7-1.83L133,70.93,130.15,9.07C129.1,9,128.06,9,127,9c-1.39,0-2.77,0-4.15.09L120,70.93,101.2,12q-3.57.85-7,1.92l13.22,60.43L74,22.22c-2.16,1.15-4.26,2.37-6.33,3.65l28.41,55L50.28,39.12c-1.79,1.65-3.53,3.35-5.2,5.12L86.83,90.06,31.59,61.5c-1.3,2-2.54,4.13-3.71,6.26l52.43,33.61L19.24,88q-1.08,3.43-1.95,7l59.64,19-62.79,2.92c-.08,1.7-.14,3.4-.14,5.11q0,1.05,0,2.1L76.93,127l-60,19.11-.24.24q.75,3.44,1.71,6.8l61.93-13.55L27.4,173.55c-.17.28-.32.56-.51.86,1,2,2.16,3.9,3.31,5.81l56.63-29.28-43,47.18-.08.28c1.57,1.71,3.21,3.36,4.89,5l47.41-43.2L66.48,217.39c2,1.27,4,2.45,6.08,3.59l34.81-54.29L93.53,229.94c2.23.69,4.5,1.31,6.79,1.86L120,170.07l3,64.83c1.33,0,2.66.1,4,.1,1,0,2,0,3-.05l3-64.88,19.58,61.5.4.39q3.3-.78,6.52-1.76l-13.9-63.51,35.09,54.73c2.06-1.11,4.07-2.31,6.05-3.55l-29.83-57.7,47.92,43.66q2.55-2.43,4.93-5l-43.62-47.88,57.41,29.68q1.83-3,3.48-6.14l-54.37-34.85,62.87,13.76c.66-2.26,1.24-4.55,1.76-6.86L176.07,127l63.9-3c0-.69,0-1.37,0-2.06C240,120.3,239.94,118.62,239.85,116.94Z"/><circle class="cls-7" cx="127" cy="122" r="107.5"/><circle class="cls-8" cx="127.05" cy="121.95" r="106.36"/><circle class="cls-9" cx="127.09" cy="121.91" r="105.23"/><circle class="cls-10" cx="127.14" cy="121.86" r="104.09"/><circle class="cls-11" cx="127.18" cy="121.82" r="102.95"/><circle class="cls-12" cx="127.23" cy="121.77" r="101.82"/><circle class="cls-13" cx="127.27" cy="121.73" r="100.68"/><circle class="cls-14" cx="127.32" cy="121.68" r="99.55"/><circle class="cls-15" cx="127.36" cy="121.64" r="98.41"/><circle class="cls-16" cx="127.41" cy="121.59" r="97.27"/><circle class="cls-17" cx="127.45" cy="121.55" r="96.14"/><circle class="cls-18" cx="127.5" cy="121.5" r="95"/></g><path class="cls-19" d="M30.5,126.5A100,100,0,0,1,199.18,53.82,100,100,0,1,0,57.82,195.18,99.66,99.66,0,0,1,30.5,126.5Z"/><path class="cls-20" d="M96,150.45a43.87,43.87,0,0,1-16,2.72,30.36,30.36,0,0,1-15.42-3.73,24.56,24.56,0,0,1-9.89-10.6A35.22,35.22,0,0,1,51.24,123a37.51,37.51,0,0,1,3.82-17.21A27.7,27.7,0,0,1,65.87,94.11,31.13,31.13,0,0,1,82,90a51.4,51.4,0,0,1,14,1.92v17a19,19,0,0,0-5.58-2.38,25.62,25.62,0,0,0-6.56-.85Q77,105.68,73,110t-4,11.67q0,7.32,4,11.57a13.82,13.82,0,0,0,10.6,4.23A25.68,25.68,0,0,0,96,134.05Z"/><path class="cls-20" d="M143,132.41q0,9.69-6,15.23t-16.83,5.53q-10.74,0-16.72-5.4t-6-14.91a19.46,19.46,0,0,1,2.81-10.58,18.09,18.09,0,0,1,8-6.89,28.37,28.37,0,0,1,12-2.39,27.4,27.4,0,0,1,12.14,2.51A18.25,18.25,0,0,1,143,132.41Zm-16.62.08q0-7.82-6.16-7.82t-6.15,8.19q0,8.64,6.23,8.64Q126.38,141.5,126.38,132.49Z"/><path class="cls-20" d="M146.66,152.29V93H165v59.29Z"/><path class="cls-20" d="M203,126.81a15.59,15.59,0,0,0-2.8-.77,15.07,15.07,0,0,0-2.93-.35q-9.08,0-9.08,9.43v17.17H169.85V112.7h18.34v7h.17a12.6,12.6,0,0,1,4.78-5.71,13.31,13.31,0,0,1,7.23-2,6.83,6.83,0,0,1,2.63.46Z"/></g></g></g></svg>